<?xml version="1.0" encoding="utf-8"?>
<!-- Generator: Adobe Illustrator 25.2.0, SVG Export Plug-In . SVG Version: 6.00 Build 0)  -->
<svg version="1.1" xmlns="http://www.w3.org/2000/svg" xmlns:xlink="http://www.w3.org/1999/xlink" x="0px" y="0px"
	 viewBox="0 0 1080 308" style="enable-background:new 0 0 1080 308;" xml:space="preserve">
<style type="text/css">
	.st0{fill:#E41C24;}
	.st1{fill:#FFFFFF;}
	.st2{fill:#00D7FF;}
</style>
<g id="Background">
</g>
<g id="Layer_1">
	<g>
		<polygon class="st2" points="178.21,3.44 268.12,3.44 268.12,304.55 179.72,304.55 89.92,163.09 89.92,304.55 0,304.55 0,3.44
			94.87,3.44 178.21,134.4 		"/>
		<polygon class="st2" points="746.23,3.44 703.71,70.4 661.19,3.44 554.68,3.44 650.45,154.27 555.02,304.55 661.54,304.55
			703.71,238.14 745.89,304.55 852.4,304.55 756.97,154.27 795.65,93.35 892.87,93.35 892.87,304.55 986.43,304.55 986.43,93.35
			1080,93.35 1080,3.44 		"/>
		<path class="st2" d="M488.18,207.27c-4.49,5.7-9.78,10.38-15.89,13.97c-7.71,4.55-17.88,6.82-30.51,6.82
			c-14.22,0-26.57-3.56-37.04-10.67c-10.46-7.11-18.06-17.57-22.81-30.97h210.63c2.24-10.46,3.43-21.3,3.43-32.43
			c0-85.05-68.95-154-154-154s-154,68.95-154,154s68.95,154,154,154c66.32,0,122.83-41.93,144.51-100.73H488.18z M408.89,90.42
			c9.67-5.92,21.03-8.89,34.07-8.89c12.64,0,23.79,2.77,33.48,8.3c9.67,5.53,17.08,13.83,22.22,24.88H386.08
			C391.61,104.45,399.21,96.35,408.89,90.42z"/>
	</g>
</g>
</svg>
